<?xml version="1.0" encoding="utf-8"?>
<!-- Generator: Adobe Illustrator 25.1.0, SVG Export Plug-In . SVG Version: 6.00 Build 0)  -->
<svg version="1.1" id="Layer_1" xmlns="http://www.w3.org/2000/svg" xmlns:xlink="http://www.w3.org/1999/xlink" x="0px" y="0px"
	 viewBox="0 0 512 217" style="enable-background:new 0 0 512 217;" xml:space="preserve">
<style type="text/css">
	.st0{fill:#F4F400;}
</style>
<g>
	<g>
		<g>
			<ellipse transform="matrix(0.9997 -2.482198e-02 2.482198e-02 0.9997 -2.1963 6.9973)" cx="280.8" cy="92" rx="4.4" ry="3.1"/>
			
				<ellipse transform="matrix(0.9997 -2.482198e-02 2.482198e-02 0.9997 -3.1741 7.0312)" cx="281.6" cy="131.4" rx="4.4" ry="3.1"/>
			
				<rect x="276.8" y="92" transform="matrix(0.9997 -2.482198e-02 2.482198e-02 0.9997 -2.6851 7.0155)" width="8.8" height="39.4"/>
			<path d="M305.4,72.2c-0.1-4.2-11.4-7.2-25.1-6.9c-13.8,0.3-24.9,4-24.8,8.1c0,0,0,0.1,0,0.1l0.5,19.3l49.9-1.2l-0.5-19.3
				C305.4,72.2,305.4,72.2,305.4,72.2z"/>
			<ellipse transform="matrix(0.9997 -2.482198e-02 2.482198e-02 0.9997 -2.1918 7.0011)" cx="280.9" cy="91.8" rx="25" ry="7.5"/>
		</g>
		<g>
			<polygon points="256.7,83.8 209.7,78.4 220.2,74 257.3,78.2 			"/>
			<polygon class="st0" points="198.3,83.5 3.5,82.1 64.4,50 228.2,71.4 			"/>
		</g>
		<g>
			<path d="M332.3,62.3l-9.8-3.9l-29,16.3l0,0c-0.8,0.5-1.4,1.4-1.3,2.4c0,1.5,1.3,2.7,2.8,2.6c0.4,0,0.8-0.1,1.1-0.3l0,0
				L332.3,62.3z"/>
			<polygon class="st0" points="506.9,34.7 339.4,66.2 311.2,55.5 443.9,4.3 			"/>
		</g>
		<g>
			<polygon points="318,93.9 301.8,87.4 303,81 324.5,89.5 			"/>
			<polygon class="st0" points="357.5,116.7 312.3,95.6 331.5,84.2 406.7,106.4 			"/>
		</g>
	</g>
	<g>
		<path class="st0" d="M332.2,171.6l-93.5,5.3c0,0-1.1-36.9,2.4-43.2c4.7-8.7,24-18.2,33.4-21.3c4-1.3,12.8-1,16.9,0
			c9.4,2.3,28.7,9.8,34.2,17.6C329.3,135.3,332.2,171.6,332.2,171.6z"/>
		<path d="M332.2,171.6c0,0-35.1-1.8-46.8-1.2c-11.8,0.6-46.8,6.1-46.8,6.1l0-12.2c0,0,23.6-20.1,44.2-20.1
			c17.5-0.1,47.7,10.2,47.7,10.2L332.2,171.6z"/>
		<path class="st0" d="M367.1,189c-0.6,20.6-39.4,10.7-80,12.4c-38,1.6-77.9,16-83.7-2.4c-3-9.3,35.5-22.1,35.5-22.1l93.5-5.3
			C332.2,171.6,367.3,180.6,367.1,189z"/>
	</g>
</g>
</svg>
